<svg width="27" height="27" viewBox="0 0 27 27" fill="none" xmlns="http://www.w3.org/2000/svg">
<g clip-path="url(#clip0_703_1199)">
<path d="M19.1247 10.126H7.87538C7.5649 10.126 7.3129 10.378 7.3129 10.6885V19.6879C7.3129 21.0468 8.28035 22.1818 9.56277 22.444V25.3125C9.56277 26.2429 10.3198 26.9999 11.2502 26.9999C12.1805 26.9999 12.9375 26.2429 12.9375 25.3125V22.5002H14.0625V25.3125C14.0625 26.2429 14.8195 26.9999 15.7498 26.9999C16.6802 26.9999 17.4372 26.2429 17.4372 25.3125V22.444C18.7196 22.183 19.6871 21.0468 19.6871 19.6879V10.6885C19.6871 10.3769 19.4351 10.126 19.1247 10.126Z" fill="#96ADD1"/>
<path d="M16.4439 2.99752L17.3922 0.78477C17.5148 0.499021 17.3821 0.169453 17.0964 0.0468014C16.814 -0.076958 16.4799 0.0558184 16.3584 0.342674L15.4101 2.55653C14.8083 2.36079 14.167 2.25169 13.5011 2.25169C12.8351 2.25169 12.1939 2.36079 11.592 2.55653L10.6416 0.342674C10.5201 0.0558184 10.186 -0.0780653 9.9036 0.0468014C9.61785 0.169401 9.48623 0.500129 9.60888 0.78477L10.5572 2.99752C8.62572 4.04596 7.31293 6.09219 7.31293 8.43876C7.31293 8.74924 7.56493 9.00124 7.87541 9.00124H19.1247C19.4351 9.00124 19.6871 8.74924 19.6871 8.43876C19.6871 6.09219 18.3743 4.04596 16.4439 2.99752ZM11.2501 6.75137C10.9397 6.75137 10.6877 6.49937 10.6877 6.18889C10.6877 5.87841 10.9397 5.62641 11.2501 5.62641C11.5606 5.62641 11.8126 5.87841 11.8126 6.18889C11.8126 6.49937 11.5606 6.75137 11.2501 6.75137ZM15.7499 6.75137C15.4394 6.75137 15.1874 6.49937 15.1874 6.18889C15.1874 5.87841 15.4394 5.62641 15.7499 5.62641C16.0604 5.62641 16.3124 5.87841 16.3124 6.18889C16.3124 6.49937 16.0604 6.75137 15.7499 6.75137Z" fill="#96ADD1"/>
<path d="M22.4994 10.126C21.5691 10.126 20.812 10.883 20.812 11.8134V17.438C20.812 18.3683 21.5691 19.1254 22.4994 19.1254C23.4298 19.1254 24.1868 18.3683 24.1868 17.438V11.8134C24.1868 10.8831 23.4298 10.126 22.4994 10.126Z" fill="#96ADD1"/>
<path d="M4.50056 10.126C3.57023 10.126 2.81317 10.883 2.81317 11.8134V17.438C2.81317 18.3683 3.57023 19.1254 4.50056 19.1254C5.43089 19.1254 6.18795 18.3683 6.18795 17.438V11.8134C6.18795 10.8831 5.43089 10.126 4.50056 10.126Z" fill="#96ADD1"/>
</g>
<defs>
<clipPath id="clip0_703_1199">
<rect width="27" height="27" fill="white"/>
</clipPath>
</defs>
</svg>
