<svg width="27" height="27" viewBox="0 0 27 27" fill="none" xmlns="http://www.w3.org/2000/svg">
<path d="M8.76931 26.9998C4.75089 26.9766 1.42694 18.7737 1.42694 14.5961C1.42694 7.77208 6.54613 6.27812 8.51903 6.27812C9.40813 6.27812 10.3575 6.62727 11.1949 6.93624C11.7804 7.15177 12.386 7.37425 12.7229 7.37425C12.9245 7.37425 13.3995 7.18499 13.819 7.01893C14.7135 6.66281 15.8266 6.22021 17.1229 6.22021C17.1252 6.22021 17.1283 6.22021 17.1305 6.22021C18.0984 6.22021 21.0331 6.43263 22.7974 9.08221L23.2107 9.70327L22.6159 10.1521C21.7662 10.7932 20.2158 11.9628 20.2158 14.2795C20.2158 17.0233 21.9717 18.0785 22.8152 18.586C23.1876 18.81 23.573 19.041 23.573 19.5462C23.573 19.876 20.9404 26.9588 17.1174 26.9588C16.182 26.9588 15.5207 26.6777 14.9375 26.4297C14.3473 26.1786 13.8382 25.9624 12.997 25.9624C12.5706 25.9624 12.0314 26.164 11.4606 26.378C10.6805 26.6691 9.79747 26.9998 8.79557 26.9998H8.76931Z" fill="#96ADD1"/>
<path d="M17.5279 0C17.6274 3.58995 15.0601 6.08048 12.4957 5.92429C12.0731 3.05938 15.0597 0 17.5279 0Z" fill="#96ADD1"/>
</svg>
