<svg width="10" height="8" viewBox="0 0 10 8" fill="none" xmlns="http://www.w3.org/2000/svg">
<path d="M3.40301 7.24441L0.0608195 3.92098C0.0415446 3.90181 0.0262485 3.87902 0.0158109 3.85392C0.00537328 3.82882 0 3.80191 0 3.77473C0 3.74754 0.00537328 3.72063 0.0158109 3.69553C0.0262485 3.67043 0.0415446 3.64764 0.0608195 3.62848L0.90457 2.78379C0.985195 2.70316 1.11551 2.70316 1.19613 2.78379L3.39644 4.97098C3.47707 5.0516 3.60832 5.05066 3.68894 4.97004L8.55082 0.0612896C8.63144 -0.0202729 8.76269 -0.0202729 8.84426 0.0603521L9.68894 0.90504C9.76957 0.985665 9.76957 1.11598 9.68988 1.1966L4.39301 6.54129L4.39394 6.54223L3.69551 7.24441C3.61488 7.32504 3.48363 7.32504 3.40301 7.24441Z" fill="white"/>
</svg>
