<svg width="24" height="18" viewBox="0 0 24 18" fill="none" xmlns="http://www.w3.org/2000/svg">
<rect x="1.5" y="1" width="21" height="16" rx="8" fill="#01A54E"/>
<path d="M11.1081 11.064C11.4681 11.064 11.6481 11.217 11.6481 11.523C11.6481 11.841 11.4681 12 11.1081 12H8.06612C7.70012 12 7.51712 11.841 7.51712 11.523C7.51712 11.217 7.70012 11.064 8.06612 11.064H9.00212V6.96L8.13812 7.491C8.05412 7.539 7.97912 7.563 7.91312 7.563C7.78712 7.563 7.67912 7.509 7.58912 7.401C7.50512 7.293 7.46312 7.173 7.46312 7.041C7.46312 6.867 7.54112 6.732 7.69712 6.636L9.09212 5.772C9.27212 5.664 9.44312 5.61 9.60512 5.61C9.77312 5.61 9.90812 5.661 10.0101 5.763C10.1121 5.865 10.1631 6.006 10.1631 6.186V11.064H11.1081ZM16.4776 11.064C16.8376 11.064 17.0176 11.217 17.0176 11.523C17.0176 11.841 16.8376 12 16.4776 12H13.0576C12.9016 12 12.7786 11.955 12.6886 11.865C12.5986 11.769 12.5536 11.652 12.5536 11.514C12.5536 11.334 12.6226 11.172 12.7606 11.028L14.8126 8.823C15.0646 8.547 15.2476 8.295 15.3616 8.067C15.4816 7.833 15.5416 7.602 15.5416 7.374C15.5416 7.092 15.4606 6.876 15.2986 6.726C15.1366 6.576 14.9056 6.501 14.6056 6.501C14.3596 6.501 14.1196 6.549 13.8856 6.645C13.6576 6.735 13.4266 6.861 13.1926 7.023C13.1326 7.065 13.0726 7.101 13.0126 7.131C12.9526 7.155 12.8926 7.167 12.8326 7.167C12.7306 7.167 12.6406 7.119 12.5626 7.023C12.4906 6.927 12.4546 6.813 12.4546 6.681C12.4546 6.591 12.4696 6.513 12.4996 6.447C12.5356 6.381 12.5896 6.318 12.6616 6.258C12.9256 6.048 13.2346 5.883 13.5886 5.763C13.9426 5.637 14.2966 5.574 14.6506 5.574C15.2686 5.574 15.7606 5.73 16.1266 6.042C16.4986 6.354 16.6846 6.774 16.6846 7.302C16.6846 7.668 16.6066 8.013 16.4506 8.337C16.2946 8.655 16.0306 9.012 15.6586 9.408L14.1016 11.064H16.4776Z" fill="white"/>
<rect x="1.5" y="1" width="21" height="16" rx="8" stroke="#FED700" stroke-width="2"/>
</svg>
