<svg width="18" height="18" viewBox="0 0 18 18" fill="none" xmlns="http://www.w3.org/2000/svg">
<rect x="1" y="1" width="16" height="16" rx="8" fill="#01A54E"/>
<path d="M10.7794 11.064C11.1394 11.064 11.3194 11.217 11.3194 11.523C11.3194 11.841 11.1394 12 10.7794 12H7.35936C7.20336 12 7.08036 11.955 6.99036 11.865C6.90036 11.769 6.85536 11.652 6.85536 11.514C6.85536 11.334 6.92436 11.172 7.06236 11.028L9.11436 8.823C9.36636 8.547 9.54936 8.295 9.66336 8.067C9.78336 7.833 9.84336 7.602 9.84336 7.374C9.84336 7.092 9.76236 6.876 9.60036 6.726C9.43836 6.576 9.20736 6.501 8.90736 6.501C8.66136 6.501 8.42136 6.549 8.18736 6.645C7.95936 6.735 7.72836 6.861 7.49436 7.023C7.43436 7.065 7.37436 7.101 7.31436 7.131C7.25436 7.155 7.19436 7.167 7.13436 7.167C7.03236 7.167 6.94236 7.119 6.86436 7.023C6.79236 6.927 6.75636 6.813 6.75636 6.681C6.75636 6.591 6.77136 6.513 6.80136 6.447C6.83736 6.381 6.89136 6.318 6.96336 6.258C7.22736 6.048 7.53636 5.883 7.89036 5.763C8.24436 5.637 8.59836 5.574 8.95236 5.574C9.57036 5.574 10.0624 5.73 10.4284 6.042C10.8004 6.354 10.9864 6.774 10.9864 7.302C10.9864 7.668 10.9084 8.013 10.7524 8.337C10.5964 8.655 10.3324 9.012 9.96036 9.408L8.40336 11.064H10.7794Z" fill="white"/>
<rect x="1" y="1" width="16" height="16" rx="8" stroke="#FED700" stroke-width="2"/>
</svg>
