<svg width="564" height="368" viewBox="0 0 564 368" fill="none" xmlns="http://www.w3.org/2000/svg">
<g clip-path="url(#clip0_756_2068)">
<path opacity="0.25" d="M474.96 182.94L40.1504 81.35L76.2504 0L555.07 118.61L474.96 182.94Z" fill="url(#paint0_linear_756_2068)"/>
<path d="M154.2 171.9L154.84 126.01L117.3 125.49L104.44 171.2L71.12 170.74L103.65 95.3998L53.08 83.5898L0.140015 206.25L0 216.44L100 217.83L99.48 255.27L153.02 256.01L153.54 218.58L172.37 218.84L173.02 172.16L154.2 171.9Z" fill="#231F20"/>
<path d="M102.57 43.2702L81.7602 91.4502L31.2002 79.6302L47.2402 42.4902L102.57 43.2702Z" fill="#231F20"/>
<path d="M318.29 145.55C318.41 148.437 318.446 151.437 318.4 154.55C317.87 192.94 305.4 213.99 283.48 213.68C261.56 213.37 249.7 191.81 250.24 153.42C250.283 145.62 250.999 137.837 252.38 130.16L197.38 117.31C194.639 128.883 193.207 140.727 193.11 152.62C192.18 219.17 227.4 262.54 282.78 263.32C337.12 264.07 373.21 223.32 375.42 158.9L318.29 145.55Z" fill="#231F20"/>
<path d="M351.63 150.2C351.63 151.45 351.63 152.7 351.54 153.93L294.4 140.59C293.04 107.82 281.28 89.43 261.27 89.15C244.27 88.91 232.97 101.6 228.49 125.15L173.49 112.3C184.65 66.3799 216.96 38.84 261.95 39.46C317.51 40.29 352.57 83.4699 351.63 150.2Z" fill="#231F20"/>
<path d="M409.84 166.94L390.51 211.69L390.37 221.88L490.37 223.28L489.85 260.71L543.39 261.46L543.91 224.03L562.74 224.29L563.04 202.73L409.84 166.94Z" fill="#231F20"/>
<path d="M529.87 195.6L385.96 161.98L435.62 46.9399L490.95 47.7099L437.62 171.23L470.94 171.69L483.8 125.98L521.34 126.5L520.7 172.39L539.52 172.65L529.87 195.6Z" fill="#231F20"/>
<g opacity="0.9">
<path opacity="0.9" d="M68.8799 305.79V360.63H66.6699L29.9099 310.35V360.63H27.3799V305.79H29.7098L66.3599 355.97V305.79H68.8799Z" fill="#262622"/>
<path opacity="0.9" d="M89.5098 333.27C89.5098 317.17 101.3 304.97 117.79 304.97C134.28 304.97 146.07 317.11 146.07 333.27C146.07 349.43 134.28 361.45 117.79 361.45C101.3 361.45 89.5098 349.31 89.5098 333.27ZM143.51 333.27C143.51 318.56 132.8 307.49 117.83 307.49C102.86 307.49 92.1598 318.64 92.1598 333.27C92.1598 347.9 102.87 358.92 117.83 358.92C132.79 358.92 143.44 347.92 143.44 333.27H143.51Z" fill="#262622"/>
<path opacity="0.9" d="M195.51 308.2H177.63V360.59H175.06V308.2H157.18V305.75H195.51V308.2Z" fill="#262622"/>
<path opacity="0.9" d="M243.41 308.26V331.82H268.01V334.25H243.41V360.63H240.84V305.79H270.04V308.26H243.41Z" fill="#262622"/>
<path opacity="0.9" d="M284.06 333.27C284.06 317.17 295.849 304.97 312.349 304.97C328.849 304.97 340.63 317.11 340.63 333.27C340.63 349.43 328.839 361.45 312.349 361.45C295.859 361.45 284.06 349.31 284.06 333.27ZM338.06 333.27C338.06 318.56 327.35 307.49 312.39 307.49C297.43 307.49 286.709 318.64 286.709 333.27C286.709 347.9 297.42 358.92 312.39 358.92C327.36 358.92 338.02 347.92 338.02 333.27H338.06Z" fill="#262622"/>
<path opacity="0.9" d="M360.51 340.42V305.79H363.09V340.28C363.09 351.11 370.56 358.81 381.03 358.81C391.5 358.81 398.95 351.11 398.95 340.28V305.79H401.51V340.42C401.51 352.6 392.85 361.33 381 361.33C369.15 361.33 360.51 352.6 360.51 340.42Z" fill="#262622"/>
<path opacity="0.9" d="M466.98 305.79V360.63H464.76L428 310.35V360.63H425.51V305.79H427.84L464.48 355.97V305.79H466.98Z" fill="#262622"/>
<path opacity="0.9" d="M535.64 333.2C535.64 349.1 523.91 360.68 507.83 360.68H491.67V305.79H507.83C523.96 305.79 535.64 317.31 535.64 333.2ZM533.03 333.2C533.03 318.79 522.46 308.29 507.77 308.29H494.23V358.2H507.77C522.4 358.2 533.03 347.62 533.03 333.2Z" fill="#262622"/>
</g>
<g opacity="0.9">
<path opacity="0.9" d="M74.8203 312.14V366.98H72.6102L35.8502 316.71V366.98H33.3203V312.14H35.6503L72.2903 362.32V312.14H74.8203Z" fill="black"/>
<path opacity="0.9" d="M95.4199 339.62C95.4199 323.52 107.21 311.32 123.7 311.32C140.19 311.32 151.98 323.46 151.98 339.62C151.98 355.78 140.19 367.8 123.7 367.8C107.21 367.8 95.4199 355.66 95.4199 339.62ZM149.37 339.62C149.37 324.91 138.66 313.85 123.7 313.85C108.74 313.85 98.0199 324.99 98.0199 339.62C98.0199 354.25 108.74 365.28 123.7 365.28C138.66 365.28 149.37 354.27 149.37 339.62Z" fill="black"/>
<path opacity="0.9" d="M201.511 314.59H183.621V366.98H181.061V314.59H163.181V312.14H201.511V314.59Z" fill="black"/>
<path opacity="0.9" d="M249.34 314.61V338.2H273.94V340.63H249.34V367.01H246.78V312.14H275.98V314.61H249.34Z" fill="black"/>
<path opacity="0.9" d="M290 339.62C290 323.52 301.79 311.32 318.28 311.32C334.77 311.32 346.56 323.46 346.56 339.62C346.56 355.78 334.77 367.8 318.28 367.8C301.79 367.8 290 355.66 290 339.62ZM344 339.62C344 324.91 333.28 313.85 318.32 313.85C303.36 313.85 292.64 324.99 292.64 339.62C292.64 354.25 303.36 365.28 318.32 365.28C333.28 365.28 343.96 354.27 343.96 339.62H344Z" fill="black"/>
<path opacity="0.9" d="M366.431 346.77V312.14H369.021V346.63C369.021 357.46 376.481 365.16 386.961 365.16C397.441 365.16 404.881 357.46 404.881 346.63V312.14H407.511V346.77C407.511 358.95 398.861 367.69 387.011 367.69C375.161 367.69 366.431 358.95 366.431 346.77Z" fill="black"/>
<path opacity="0.9" d="M472.91 312.14V366.98H470.7L433.94 316.71V366.98H431.41V312.14H433.74L470.38 362.32V312.14H472.91Z" fill="black"/>
<path opacity="0.9" d="M541.571 339.5C541.571 355.41 529.841 366.98 513.761 366.98H497.601V312.14H513.761C529.901 312.14 541.571 323.66 541.571 339.5ZM538.971 339.5C538.971 325.09 528.391 314.59 513.701 314.59H500.171V364.53H513.701C528.331 364.53 538.971 353.98 538.971 339.5Z" fill="black"/>
</g>
</g>
<defs>
<linearGradient id="paint0_linear_756_2068" x1="307" y1="56" x2="286.581" y2="141.401" gradientUnits="userSpaceOnUse">
<stop stop-color="#F2F9FF"/>
<stop offset="0.9" stop-color="#A5C5DF"/>
</linearGradient>
<clipPath id="clip0_756_2068">
<rect width="563.06" height="367.8" fill="white"/>
</clipPath>
</defs>
</svg>
