<svg width="59" height="37" viewBox="0 0 59 37" fill="none" xmlns="http://www.w3.org/2000/svg">
<path d="M18.4099 31.7298V29.9149C18.42 29.7628 18.3977 29.6102 18.3445 29.4674C18.2913 29.3245 18.2084 29.1945 18.1012 29.086C17.9941 28.9775 17.8651 28.893 17.7229 28.8381C17.5807 28.7831 17.4284 28.759 17.2761 28.7672C17.0764 28.7554 16.8771 28.7967 16.6985 28.8868C16.5198 28.9769 16.3682 29.1128 16.2591 29.2804C16.1627 29.1201 16.0256 28.9882 15.8617 28.898C15.6978 28.8079 15.513 28.7628 15.326 28.7672C15.1595 28.7599 14.9939 28.7955 14.8452 28.8706C14.6965 28.9458 14.5696 29.058 14.4768 29.1965V28.8419H13.833V31.7298H14.4675V30.1296C14.4536 30.0308 14.4617 29.9302 14.4913 29.835C14.5208 29.7397 14.571 29.6522 14.6384 29.5787C14.7057 29.5051 14.7884 29.4473 14.8807 29.4095C14.9729 29.3716 15.0724 29.3547 15.172 29.3598C15.5919 29.3598 15.8018 29.635 15.8018 30.1202V31.7298H16.4364V30.1296C16.4233 30.031 16.432 29.9307 16.4619 29.8358C16.4917 29.741 16.542 29.6538 16.6091 29.5804C16.6763 29.5071 16.7587 29.4493 16.8505 29.4112C16.9424 29.373 17.0415 29.3555 17.1408 29.3598C17.5701 29.3598 17.7753 29.635 17.7753 30.1202V31.7298H18.4099ZM27.7968 28.8419H26.7704V27.9648H26.1359V28.8419H25.5527V29.4157H26.1359V30.7314C26.1359 31.4032 26.3972 31.7998 27.139 31.7998C27.4163 31.8013 27.6882 31.7236 27.9228 31.5759L27.7455 31.0347C27.5766 31.1336 27.3859 31.1897 27.1903 31.198C26.8731 31.198 26.7704 31.0067 26.7704 30.7314V29.4251H27.7968V28.8419ZM33.1575 28.7672C33.0043 28.7632 32.8528 28.8006 32.719 28.8753C32.5852 28.95 32.474 29.0593 32.397 29.1918V28.8419H31.7718V31.7298H32.4017V30.1016C32.4017 29.635 32.607 29.3598 33.0175 29.3598C33.1516 29.3561 33.2849 29.38 33.4094 29.4297L33.6054 28.8372C33.4553 28.7853 33.2976 28.7585 33.1388 28.7579L33.1575 28.7672ZM25.0349 29.0612C24.6822 28.8535 24.2774 28.7515 23.8685 28.7672C23.136 28.7672 22.6648 29.1218 22.6648 29.7003C22.6648 30.1669 23.0147 30.4655 23.6632 30.5541L23.9571 30.5961C24.3024 30.6428 24.4657 30.7361 24.4657 30.8994C24.4657 31.0627 24.2371 31.2493 23.8078 31.2493C23.4625 31.2589 23.124 31.1521 22.8467 30.946L22.5528 31.4126C22.9192 31.6669 23.3573 31.7977 23.8032 31.7858C24.6336 31.7858 25.1188 31.3939 25.1188 30.8527C25.1188 30.3115 24.7363 30.0829 24.1111 29.9896L23.8125 29.9476C23.5419 29.9103 23.3459 29.859 23.3459 29.663C23.3459 29.4671 23.5512 29.3271 23.8965 29.3271C24.2127 29.3319 24.5226 29.417 24.7969 29.5744L25.0349 29.0612ZM41.868 28.7579C41.7147 28.7534 41.563 28.7905 41.4291 28.8653C41.2952 28.94 41.1841 29.0496 41.1075 29.1825V28.8419H40.501V31.7298H41.1308V30.1016C41.1308 29.635 41.3361 29.3598 41.7467 29.3598C41.8807 29.3565 42.0139 29.3803 42.1386 29.4297L42.3298 28.8372C42.1873 28.787 42.0377 28.7602 41.8866 28.7579H41.868ZM33.792 30.2835C33.7832 30.487 33.8171 30.6901 33.8917 30.8796C33.9662 31.0691 34.0797 31.2409 34.2248 31.3838C34.37 31.5267 34.5434 31.6376 34.7341 31.7092C34.9247 31.7809 35.1283 31.8117 35.3316 31.7998C35.7082 31.8206 36.0785 31.6971 36.3673 31.4546L36.0688 30.9507C35.8505 31.1144 35.5858 31.2043 35.3129 31.2073C35.0655 31.2073 34.8281 31.109 34.6531 30.934C34.4781 30.759 34.3798 30.5217 34.3798 30.2742C34.3798 30.0267 34.4781 29.7894 34.6531 29.6144C34.8281 29.4394 35.0655 29.3411 35.3129 29.3411C35.5862 29.3458 35.8509 29.4373 36.0688 29.6024L36.3673 29.0938C36.0774 28.8533 35.7079 28.7302 35.3316 28.7486C35.1285 28.7374 34.9252 28.7687 34.7349 28.8406C34.5446 28.9126 34.3714 29.0235 34.2265 29.1662C34.0815 29.309 33.968 29.4804 33.8932 29.6696C33.8183 29.8588 33.7839 30.0616 33.792 30.2649V30.2835ZM39.6752 30.2649V28.8419H39.0453V29.1918C38.9364 29.05 38.7944 28.9372 38.6317 28.8632C38.469 28.7892 38.2906 28.7562 38.1122 28.7672C37.7101 28.7672 37.3244 28.927 37.0401 29.2113C36.7557 29.4957 36.596 29.8814 36.596 30.2835C36.596 30.6857 36.7557 31.0713 37.0401 31.3557C37.3244 31.6401 37.7101 31.7998 38.1122 31.7998C38.2901 31.8106 38.468 31.778 38.6305 31.7048C38.7931 31.6317 38.9354 31.5202 39.0453 31.3799V31.7298H39.6752V30.2649ZM37.3424 30.2649C37.3542 30.0954 37.4153 29.9331 37.518 29.7978C37.6208 29.6625 37.7608 29.5602 37.9209 29.5033C38.081 29.4465 38.2542 29.4376 38.4192 29.4778C38.5843 29.5181 38.734 29.6056 38.85 29.7297C38.9661 29.8537 39.0433 30.009 39.0724 30.1764C39.1014 30.3438 39.0809 30.516 39.0135 30.6719C38.9461 30.8278 38.8346 30.9607 38.6927 31.0541C38.5508 31.1475 38.3848 31.1975 38.2149 31.198C38.0948 31.1989 37.9759 31.175 37.8655 31.1277C37.7552 31.0803 37.6559 31.0106 37.5739 30.9229C37.4919 30.8352 37.429 30.7314 37.3891 30.6181C37.3493 30.5049 37.3334 30.3846 37.3424 30.2649ZM29.7563 28.7672C29.5592 28.7613 29.363 28.7971 29.1806 28.8722C28.9983 28.9474 28.8339 29.0603 28.6982 29.2035C28.5625 29.3466 28.4586 29.5169 28.3933 29.703C28.328 29.8891 28.3028 30.087 28.3194 30.2835C28.3061 30.4829 28.335 30.6828 28.4041 30.8703C28.4732 31.0578 28.581 31.2286 28.7205 31.3716C28.8601 31.5147 29.0281 31.6267 29.2138 31.7005C29.3995 31.7743 29.5987 31.8081 29.7983 31.7998C30.229 31.8145 30.6502 31.6719 30.9834 31.3986L30.6754 30.932C30.4361 31.1221 30.1412 31.2286 29.8357 31.2353C29.6276 31.2513 29.4213 31.1865 29.2598 31.0545C29.0982 30.9224 28.9936 30.7332 28.9679 30.5261H31.114C31.114 30.4468 31.114 30.3675 31.114 30.2835C31.13 30.0925 31.1066 29.9002 31.0452 29.7186C30.9838 29.537 30.8858 29.3699 30.7572 29.2277C30.6286 29.0856 30.4722 28.9713 30.2976 28.8921C30.123 28.8129 29.934 28.7704 29.7423 28.7672H29.7563ZM29.7423 29.3318C29.8365 29.3293 29.9302 29.3455 30.018 29.3793C30.1059 29.4132 30.1862 29.4642 30.2542 29.5292C30.3223 29.5943 30.3769 29.6721 30.4147 29.7584C30.4526 29.8446 30.473 29.9374 30.4748 30.0316H29.0005C29.0114 29.8381 29.0975 29.6566 29.2405 29.5258C29.3835 29.395 29.572 29.3254 29.7657 29.3318H29.7423ZM45.5257 30.2649V27.6802H44.8632V29.1918C44.7549 29.0494 44.6129 28.9361 44.4501 28.862C44.2873 28.788 44.1086 28.7554 43.9301 28.7672C43.528 28.7672 43.1423 28.927 42.8579 29.2113C42.5736 29.4957 42.4138 29.8814 42.4138 30.2835C42.4138 30.6857 42.5736 31.0713 42.8579 31.3557C43.1423 31.6401 43.528 31.7998 43.9301 31.7998C44.1081 31.8114 44.2862 31.7791 44.4489 31.7059C44.6116 31.6327 44.7538 31.5208 44.8632 31.3799V31.7298H45.493L45.5257 30.2649ZM43.193 30.2649C43.2048 30.0956 43.2657 29.9334 43.3682 29.7983C43.4708 29.6631 43.6105 29.5607 43.7703 29.5037C43.9302 29.4468 44.1031 29.4376 44.2681 29.4775C44.433 29.5173 44.5828 29.6044 44.699 29.728C44.8152 29.8516 44.8928 30.0065 44.9224 30.1735C44.952 30.3406 44.9322 30.5127 44.8654 30.6687C44.7987 30.8247 44.6879 30.9579 44.5466 31.0519C44.4054 31.1459 44.2397 31.1966 44.0701 31.198C43.9496 31.1996 43.8301 31.1761 43.7193 31.1291C43.6084 31.082 43.5085 31.0124 43.426 30.9246C43.3435 30.8368 43.2801 30.7328 43.24 30.6193C43.1999 30.5057 43.1839 30.385 43.193 30.2649ZM21.979 30.2649V28.8419H21.3211V29.1918C21.215 29.0528 21.0769 28.9416 20.9184 28.8677C20.76 28.7937 20.586 28.7593 20.4114 28.7672C20.0092 28.7672 19.6235 28.927 19.3392 29.2113C19.0548 29.4957 18.8951 29.8814 18.8951 30.2835C18.8951 30.6857 19.0548 31.0713 19.3392 31.3557C19.6235 31.6401 20.0092 31.7998 20.4114 31.7998C20.5855 31.8075 20.759 31.7734 20.9173 31.7004C21.0755 31.6273 21.214 31.5175 21.3211 31.3799V31.7298H21.951L21.979 30.2649ZM19.6462 30.2649C19.658 30.0956 19.7189 29.9334 19.8215 29.7983C19.924 29.6631 20.0638 29.5607 20.2236 29.5037C20.3834 29.4468 20.5564 29.4376 20.7213 29.4775C20.8863 29.5173 21.036 29.6044 21.1522 29.728C21.2685 29.8516 21.3461 30.0065 21.3757 30.1735C21.4052 30.3406 21.3854 30.5127 21.3187 30.6687C21.2519 30.8247 21.1411 30.9579 20.9999 31.0519C20.8586 31.1459 20.693 31.1966 20.5233 31.198C20.4029 31.1996 20.2834 31.1761 20.1725 31.1291C20.0616 31.082 19.9617 31.0124 19.8792 30.9246C19.7967 30.8368 19.7334 30.7328 19.6933 30.6193C19.6532 30.5057 19.6371 30.385 19.6462 30.2649ZM46.5848 31.2913C46.6218 31.2847 46.6597 31.2847 46.6967 31.2913C46.7321 31.3041 46.764 31.3249 46.7901 31.3519C46.8155 31.3793 46.8361 31.4108 46.8507 31.4452C46.8582 31.4822 46.8582 31.5203 46.8507 31.5572C46.8577 31.5926 46.8577 31.6291 46.8507 31.6645C46.8361 31.6989 46.8155 31.7305 46.7901 31.7578C46.764 31.7849 46.7321 31.8056 46.6967 31.8185C46.6599 31.8272 46.6216 31.8272 46.5848 31.8185C46.5465 31.8281 46.5064 31.8281 46.4681 31.8185C46.4322 31.8068 46.4001 31.7859 46.3748 31.7578C46.3479 31.7307 46.3258 31.6991 46.3095 31.6645C46.3025 31.6291 46.3025 31.5926 46.3095 31.5572C46.2916 31.5406 46.2759 31.5218 46.2629 31.5012C46.2792 31.4666 46.3012 31.4351 46.3282 31.4079C46.3534 31.3798 46.3856 31.3589 46.4215 31.3473C46.46 31.3398 46.4996 31.3398 46.5381 31.3473L46.5848 31.2913ZM46.5381 31.8605C46.5659 31.8648 46.5943 31.8648 46.6221 31.8605C46.6478 31.8488 46.6714 31.833 46.6921 31.8138C46.7314 31.77 46.7545 31.714 46.7574 31.6552C46.7643 31.626 46.7643 31.5957 46.7574 31.5665C46.7491 31.5391 46.7329 31.5147 46.7107 31.4965C46.6915 31.4744 46.6676 31.4569 46.6408 31.4452C46.6129 31.4408 46.5846 31.4408 46.5568 31.4452C46.5274 31.4404 46.4975 31.4404 46.4681 31.4452C46.4405 31.4579 46.4153 31.4753 46.3935 31.4965C46.3743 31.5172 46.3585 31.5408 46.3468 31.5665C46.342 31.5959 46.342 31.6258 46.3468 31.6552C46.3424 31.683 46.3424 31.7113 46.3468 31.7392C46.3596 31.7657 46.3752 31.7907 46.3935 31.8138L46.4681 31.8605C46.4975 31.8653 46.5274 31.8653 46.5568 31.8605H46.5381ZM46.5568 31.5012C46.5693 31.496 46.5828 31.4932 46.5964 31.4932C46.6101 31.4932 46.6235 31.496 46.6361 31.5012C46.6454 31.5082 46.6529 31.5174 46.6578 31.528C46.6627 31.5386 46.6648 31.5502 46.6641 31.5619C46.6686 31.5705 46.6709 31.5801 46.6709 31.5899C46.6709 31.5996 46.6686 31.6092 46.6641 31.6179C46.6447 31.6259 46.6229 31.6259 46.6034 31.6179L46.6921 31.7205H46.6221L46.5428 31.6225H46.5148V31.7205H46.4588V31.4546L46.5568 31.5012ZM46.4915 31.5525V31.6225H46.5568H46.5941C46.5966 31.6183 46.5979 31.6134 46.5979 31.6085C46.5979 31.6036 46.5966 31.5988 46.5941 31.5945C46.5962 31.5901 46.5973 31.5854 46.5973 31.5805C46.5973 31.5757 46.5962 31.5709 46.5941 31.5665H46.4915V31.5525Z" fill="#839FCA"/>
<path d="M34.3612 6.83496H24.8483V23.934H34.3612V6.83496Z" fill="#839FCA"/>
<path d="M25.4501 15.3867C25.4485 13.7397 25.8215 12.1139 26.5409 10.6323C27.2603 9.15073 28.3072 7.85215 29.6024 6.83481C27.9977 5.57185 26.07 4.78598 24.0397 4.56709C22.0094 4.34819 19.9585 4.70511 18.1215 5.59701C16.2845 6.48891 14.7356 7.8798 13.6519 9.61061C12.5682 11.3414 11.9935 13.3423 11.9935 15.3843C11.9935 17.4264 12.5682 19.4272 13.6519 21.1581C14.7356 22.8889 16.2845 24.2797 18.1215 25.1716C19.9585 26.0636 22.0094 26.4205 24.0397 26.2016C26.07 25.9827 27.9977 25.1968 29.6024 23.9338C28.3073 22.9175 27.2604 21.6197 26.541 20.1389C25.8216 18.6581 25.4486 17.033 25.4501 15.3867Z" fill="#839FCA"/>
<path d="M47.196 15.3867C47.1962 17.4265 46.6224 19.4253 45.5403 21.1545C44.4582 22.8837 42.9113 24.2736 41.0766 25.1651C39.2418 26.0567 37.1933 26.4141 35.165 26.1963C33.1368 25.9786 31.2107 25.1945 29.6071 23.9338C30.9007 22.9157 31.9464 21.6172 32.6654 20.1363C33.3845 18.6554 33.758 17.0306 33.758 15.3843C33.758 13.7381 33.3845 12.1133 32.6654 10.6323C31.9464 9.15142 30.9007 7.85297 29.6071 6.8348C31.2116 5.57574 33.1378 4.79323 35.1658 4.57664C37.1938 4.36005 39.2418 4.7181 41.076 5.60991C42.9103 6.50172 44.4567 7.89135 45.5389 9.62012C46.6211 11.3489 47.1953 13.3471 47.196 15.3867ZM46.1602 22.1236V21.7737H46.3049V21.7037H45.9409V21.7737H46.0856V22.1236H46.1602ZM46.86 22.1236V21.7037H46.7294L46.6034 21.993L46.4961 21.7037H46.3842V22.1236H46.4635V21.8064L46.5801 22.0816H46.6641L46.7807 21.8064V22.1236H46.86Z" fill="#597CB0"/>
</svg>
