<svg width="59" height="37" viewBox="0 0 59 37" fill="none" xmlns="http://www.w3.org/2000/svg">
<g clip-path="url(#clip0_756_837)">
<path d="M11.75 16.1842C11.546 17.5474 10.5236 17.5474 9.53237 17.5474H8.96837L9.36437 14.9995C9.38837 14.8456 9.51797 14.7332 9.67157 14.7332H9.93077C10.6052 14.7332 11.2412 14.7332 11.57 15.124C11.7644 15.3586 11.8244 15.7054 11.75 16.1842ZM11.3204 12.625H7.58597C7.33157 12.625 7.11317 12.8131 7.07237 13.072L5.56517 22.8166C5.53877 22.99 5.65397 23.1513 5.82437 23.1781C5.84117 23.1806 5.85557 23.183 5.87237 23.183H7.65557C7.90997 23.183 8.12837 22.9949 8.16677 22.736L8.57477 20.1075C8.61317 19.851 8.83157 19.6604 9.08597 19.6604H10.2668C12.7268 19.6604 14.1452 18.4488 14.5172 16.0474C14.6852 14.997 14.5244 14.1738 14.042 13.5948C13.5116 12.9621 12.5684 12.625 11.3204 12.625ZM19.9892 19.6824C19.8164 20.7231 19.0052 21.4193 17.9708 21.4193C17.4524 21.4193 17.0372 21.2483 16.7708 20.9283C16.5068 20.6107 16.406 20.1563 16.49 19.6507C16.6508 18.6198 17.474 17.8991 18.494 17.8991C19.0028 17.8991 19.4132 18.0701 19.6868 18.395C19.958 18.7248 20.066 19.1792 19.9892 19.6824ZM22.4804 16.1403H20.6924C20.5388 16.1403 20.4092 16.2526 20.3852 16.409L20.3084 16.9171L20.1836 16.7339C19.7972 16.1623 18.9332 15.9717 18.0716 15.9717C16.0964 15.9717 14.4092 17.4961 14.0804 19.6311C13.91 20.6986 14.1524 21.7173 14.7452 22.4282C15.29 23.0804 16.07 23.354 16.9964 23.354C18.59 23.354 19.4708 22.3134 19.4708 22.3134L19.3916 22.819C19.3652 22.9925 19.4804 23.1537 19.6508 23.1806C19.6676 23.183 19.6844 23.1855 19.6988 23.1855H21.3092C21.5636 23.1855 21.782 22.9974 21.8228 22.7384L22.79 16.5091C22.8164 16.3357 22.7012 16.1745 22.5308 16.1476C22.5116 16.1427 22.4948 16.1403 22.4804 16.1403ZM32.0012 16.1403H30.2036C30.0308 16.1403 29.8724 16.2282 29.774 16.3723L27.2948 20.0879L26.2436 16.5165C26.1788 16.2917 25.9748 16.1403 25.7468 16.1403H23.9804C23.8076 16.1403 23.6684 16.282 23.6684 16.4578C23.6684 16.492 23.6732 16.5262 23.6852 16.5604L25.6628 22.4722L23.8052 25.1446C23.7068 25.2888 23.7404 25.4866 23.8796 25.5868C23.9324 25.6234 23.9948 25.6454 24.0596 25.6454H25.8548C26.0252 25.6454 26.1836 25.5599 26.282 25.4182L32.258 16.6386C32.3564 16.4945 32.3204 16.2991 32.1812 16.1989C32.1284 16.1623 32.066 16.1403 32.0012 16.1403Z" fill="#839FCA"/>
<path d="M38.3803 16.1842C38.1763 17.5474 37.1539 17.5474 36.1627 17.5474H35.5987L35.9947 14.9995C36.0187 14.8456 36.1483 14.7332 36.3019 14.7332H36.5611C37.2355 14.7332 37.8715 14.7332 38.2003 15.124C38.3947 15.3586 38.4547 15.7054 38.3803 16.1842ZM37.9507 12.625H34.2163C33.9619 12.625 33.7435 12.8131 33.7027 13.072L32.1931 22.8166C32.1667 22.99 32.2819 23.1513 32.4523 23.1781C32.4691 23.1806 32.4835 23.183 32.5003 23.183H34.4155C34.5931 23.183 34.7467 23.0511 34.7731 22.8703L35.2027 20.1075C35.2411 19.851 35.4595 19.6604 35.7139 19.6604H36.8947C39.3547 19.6604 40.7731 18.4488 41.1451 16.0474C41.3131 14.997 41.1523 14.1738 40.6699 13.5948C40.1395 12.9621 39.1987 12.625 37.9507 12.625ZM46.6171 19.6824C46.4443 20.7231 45.6331 21.4193 44.5987 21.4193C44.0803 21.4193 43.6651 21.2483 43.3987 20.9283C43.1347 20.6107 43.0339 20.1563 43.1179 19.6507C43.2787 18.6198 44.1019 17.8991 45.1219 17.8991C45.6307 17.8991 46.0411 18.0701 46.3147 18.395C46.5883 18.7248 46.6963 19.1792 46.6171 19.6824ZM49.1107 16.1403H47.3227C47.1691 16.1403 47.0395 16.2526 47.0155 16.409L46.9387 16.9171L46.8139 16.7339C46.4275 16.1623 45.5635 15.9717 44.7019 15.9717C42.7267 15.9717 41.0395 17.4961 40.7107 19.6311C40.5403 20.6986 40.7827 21.7173 41.3779 22.4282C41.9227 23.0804 42.7027 23.354 43.6291 23.354C45.2227 23.354 46.1059 22.3134 46.1059 22.3134L46.0267 22.819C46.0003 22.99 46.1131 23.1537 46.2835 23.1806C46.3003 23.183 46.3171 23.1855 46.3339 23.1855H47.9443C48.1987 23.1855 48.4171 22.9974 48.4579 22.7384L49.425 16.5091C49.4514 16.3357 49.3363 16.1745 49.1659 16.1476C49.1419 16.1427 49.125 16.1403 49.1107 16.1403ZM51.2178 12.8937L49.6842 22.8166C49.6579 22.99 49.7731 23.1513 49.9435 23.1781C49.9603 23.1806 49.9746 23.183 49.9914 23.183H51.5322C51.7866 23.183 52.005 22.9949 52.0458 22.736L53.5578 12.9914C53.5842 12.818 53.469 12.6568 53.2986 12.6299C53.2818 12.6274 53.265 12.625 53.2506 12.625H51.5274C51.3714 12.625 51.2394 12.7398 51.2178 12.8937Z" fill="#839FCA"/>
</g>
<defs>
<clipPath id="clip0_756_837">
<rect width="48" height="12" fill="white" transform="translate(5.5603 12.5)"/>
</clipPath>
</defs>
</svg>
