<svg width="60" height="38" viewBox="0 0 60 38" fill="none" xmlns="http://www.w3.org/2000/svg">
<path d="M27.4798 24.2138H24.5872L26.4067 13.0632H29.2993L27.4798 24.2138Z" fill="#839FCA"/>
<path d="M22.1145 13.0632L19.3618 20.7613L19.0352 19.0817L18.0555 14.043C18.0555 14.043 17.9622 13.0632 16.6558 13.0632H12.037V13.2499C12.037 13.2499 13.4833 13.5298 15.0696 14.5562L17.5889 24.2604H20.6215L25.2403 13.0632H22.1145Z" fill="#839FCA"/>
<path d="M45.0686 24.2138H47.728L45.3952 13.0166H43.0625C41.9894 13.0166 41.7095 13.8564 41.7095 13.8564L37.4172 24.2604H40.4498L41.0563 22.5809H44.7887L45.0686 24.2138ZM41.8961 20.2948L43.4357 16.0958L44.2755 20.2948H41.8961Z" fill="#839FCA"/>
<path d="M37.6039 15.7693L38.0238 13.3433C38.0238 13.3433 36.7175 12.8767 35.4111 12.8767C33.9648 12.8767 30.5123 13.4832 30.5123 16.6091C30.5123 19.5017 34.5713 19.5484 34.5713 21.0413C34.5713 22.5809 30.9322 22.301 29.7659 21.3213L29.2993 23.794C29.2993 23.794 30.6057 24.4005 32.5652 24.4005C34.5713 24.4005 37.5572 23.3741 37.5572 20.5281C37.5572 17.6355 33.4516 17.3556 33.4516 16.0959C33.4983 14.8829 36.3442 15.0228 37.6039 15.7693Z" fill="#839FCA"/>
<path d="M19.0352 19.0817L18.0555 14.043C18.0555 14.043 17.9622 13.0632 16.6558 13.0632H12.037V13.2499C12.037 13.2499 14.2298 13.7164 16.3759 15.4426C18.3354 17.0289 19.0352 19.0817 19.0352 19.0817Z" fill="#839FCA"/>
</svg>
