<svg width="60" height="38" viewBox="0 0 60 38" fill="none" xmlns="http://www.w3.org/2000/svg">
<path d="M18.6832 17.8222V17.2157L18.4033 17.8222H15.9306L15.6506 17.169V17.7756H11.0318L10.5186 16.4692H9.63216L9.02564 17.7756H6.64624V13.8565L8.41913 9.89087H11.7783L12.2448 11.0106V9.93752H16.3505L17.2369 11.8504L18.1234 9.93752H31.0934C31.0934 9.93752 31.7466 9.93752 32.2131 10.2175V9.93752H35.479V10.3574C35.479 10.3574 36.0388 9.93752 36.9719 9.93752C37.8117 9.93752 42.7105 9.93752 42.7105 9.93752L43.2237 11.0572V9.93752H46.9561L47.6093 11.0572V9.93752H51.1084V17.8222H47.4693L46.6295 16.4226V17.8222H42.0573L41.4508 16.3759H40.5644L39.9579 17.8222H37.2519C37.2519 17.8222 36.2721 17.8222 35.479 17.2623C35.479 17.5423 35.479 17.8222 35.479 17.8222H29.9737C29.9737 17.8222 29.9737 16.2359 29.9737 15.956C29.9737 15.6761 29.7871 15.7227 29.7871 15.7227H29.6005V17.8222H18.6832Z" fill="white"/>
<path d="M15.9773 19.5017H23.1155L24.1419 20.6681L25.1683 19.5017H30.6269C30.6269 19.5017 31.1401 19.5017 31.6067 19.7816V19.5017C31.6067 19.5017 35.899 19.5017 36.5055 19.5017C37.112 19.5017 37.6252 19.8283 37.6252 19.8283V19.5017H43.9236V19.7816C43.9236 19.7816 44.3435 19.5017 44.95 19.5017C45.5565 19.5017 49.0556 19.5017 49.0556 19.5017V19.7816C49.0556 19.7816 49.5688 19.5017 50.0821 19.5017C50.5953 19.5017 53.3012 19.5017 53.3012 19.5017V26.9198C53.3012 26.9198 52.8813 27.3864 51.9949 27.3864H47.7493V27.1531C47.7493 27.1531 47.3761 27.3864 46.7695 27.3864C46.163 27.3864 35.4791 27.3864 35.4791 27.3864C35.4791 27.3864 35.4791 25.6602 35.4791 25.4735C35.4791 25.2869 35.3857 25.2403 35.2458 25.2403H35.1058V27.3864H31.6067V25.2403C31.6067 25.2403 31.2335 25.4269 30.5803 25.4269C29.9271 25.4269 29.274 25.4269 29.274 25.4269V27.3397H24.935L23.9553 26.1734L23.0222 27.3864H15.9773V19.5017Z" fill="white"/>
<path d="M38.5116 20.7148H42.9905V21.8812H39.8646V22.9543H42.8972V23.9807H39.8646V25.1004H42.9905V26.2668H38.5116V20.7148Z" fill="#839FCA"/>
<path d="M51.6683 22.8609C53.3479 22.9543 53.4878 23.794 53.4878 24.6805C53.4878 25.7069 52.648 26.3134 51.7149 26.3134H48.8223V25.147H51.0618C51.435 25.147 51.9949 25.147 51.9949 24.6338C51.9949 24.4006 51.9016 24.2139 51.4817 24.1673C51.295 24.1206 50.6419 24.1206 50.5486 24.1206C49.009 24.074 48.6824 23.3275 48.6824 22.3944C48.6824 21.368 49.3822 20.7615 50.3153 20.7615H53.2079V21.9278H51.1084C50.6419 21.9278 50.1287 21.8812 50.1287 22.3944C50.1287 22.721 50.362 22.8143 50.6885 22.8143C50.7818 22.8143 51.575 22.8609 51.6683 22.8609Z" fill="#839FCA"/>
<path d="M46.4429 22.8609C48.1225 22.9543 48.2625 23.794 48.2625 24.6805C48.2625 25.7069 47.4227 26.3134 46.4896 26.3134H43.597V25.147H45.8364C46.2097 25.147 46.7695 25.147 46.7695 24.6338C46.7695 24.4006 46.6762 24.2139 46.2563 24.1673C46.0697 24.1206 45.4165 24.1206 45.3232 24.1206C43.7836 24.074 43.457 23.3275 43.457 22.3944C43.457 21.368 44.1569 20.7615 45.09 20.7615H47.9826V21.9278H45.8831C45.4165 21.9278 44.9033 21.8812 44.9033 22.3944C44.9033 22.721 45.1366 22.8143 45.4632 22.8143C45.6032 22.8143 46.3496 22.8609 46.4429 22.8609Z" fill="#839FCA"/>
<path d="M30.2537 20.7149H25.4016L23.8153 22.4411L22.2757 20.6682H16.9104V26.2201H22.1358L23.8153 24.354L25.4483 26.2201H28.0609V24.3073H29.9271C30.627 24.3073 31.9333 24.2606 31.9333 22.3011C31.84 20.9948 30.9069 20.7149 30.2537 20.7149ZM21.4359 25.1004H18.2634V24.0274H21.296V23.001H18.2634V21.9746H21.5759L22.9289 23.5142L21.4359 25.1004ZM26.6613 25.7536L24.7018 23.4209L26.6613 21.2281V25.7536ZM29.7405 23.2342H28.0143V21.8812H29.7405C30.3004 21.8812 30.487 22.2545 30.487 22.4878C30.5336 22.9077 30.347 23.2342 29.7405 23.2342Z" fill="#839FCA"/>
<path d="M36.832 23.7474C37.5785 23.3742 37.7651 22.9076 37.7651 22.1612C37.7651 20.9948 36.832 20.6682 36.0856 20.6682H32.5398V26.2201H33.9394V24.2606H35.759C36.2255 24.2606 36.4122 24.7272 36.4122 25.1937L36.4588 26.2201H37.8118L37.7651 25.1937C37.7651 24.214 37.4852 23.7941 36.832 23.7474ZM35.6657 23.1876H33.9394V21.8812H35.6657C36.2255 21.8812 36.4122 22.2545 36.4122 22.4878C36.4122 22.9077 36.2255 23.1876 35.6657 23.1876Z" fill="#839FCA"/>
<path d="M34.5459 11.0571H33.1462V16.6557H34.5459V11.0571Z" fill="#839FCA"/>
<path d="M21.9025 11.0571H26.3813V12.2235H23.3021V13.2966H26.288V14.3696H23.3021V15.4893H26.3813V16.6091H21.9025V11.0571Z" fill="#839FCA"/>
<path d="M31.4667 14.0897C32.2132 13.7165 32.3998 13.2499 32.3998 12.5035C32.3998 11.3371 31.4667 11.0105 30.7202 11.0105H27.1744V16.5624H28.5741V14.6029H30.3936C30.8602 14.6029 31.0468 15.0695 31.0468 15.536L31.0935 16.5624H32.4464L32.3531 15.536C32.3531 14.5563 32.0732 14.183 31.4667 14.0897ZM30.3003 13.5299H28.5741V12.2235H30.3003C30.8602 12.2235 31.0468 12.5968 31.0468 12.83C31.0468 13.2966 30.8602 13.5299 30.3003 13.5299Z" fill="#839FCA"/>
<path d="M18.7299 11.0571L17.0503 14.8362L15.3707 11.0571H13.2246V16.4224L10.8452 11.0571H9.02567L6.59961 16.6091H8.04591L8.55912 15.3494H11.3584L11.8716 16.6091H14.6243V12.4568L16.4905 16.6091H17.7501L19.6163 12.5034V16.6091H21.016V11.0571H18.7299ZM9.07232 14.183L9.86545 12.2235L10.7052 14.183H9.07232Z" fill="#839FCA"/>
<path d="M48.6357 11.0572V14.9295L46.303 11.0572H44.2502V16.2825L41.9174 11.0572H40.0979L38.2317 15.3961C38.2317 15.3961 37.4386 15.3961 37.3919 15.3961C37.0653 15.3494 36.5521 15.1162 36.5521 14.0897V13.6699C36.5521 12.3169 37.2519 12.2236 38.185 12.2236H39.0248V10.9639H37.2053C36.5988 10.9639 35.1991 11.4304 35.1525 13.7165C35.1058 15.3028 35.759 16.5158 37.2986 16.5158H39.1181L39.6313 15.2561H42.384L42.8972 16.5158H45.6032V12.4102L48.0759 16.5158H49.9421V11.0572H48.6357ZM40.2379 14.1831L41.031 12.2236L41.8708 14.1831H40.2379Z" fill="#839FCA"/>
</svg>
