<svg width="61" height="38" viewBox="0 0 61 38" fill="none" xmlns="http://www.w3.org/2000/svg">
<path d="M51.0382 28.5512C51.0382 32.1061 48.142 35.0023 44.5871 35.0023H9.48486V9.45116C9.48486 5.89627 12.3811 3 15.936 3H51.0382V28.5512Z" fill="white"/>
<path d="M39.6089 21.9982H42.2767C42.3535 21.9982 42.5301 21.9733 42.607 21.9733C43.1139 21.8715 43.5461 21.4144 43.5461 20.7786C43.5461 20.1699 43.1139 19.7128 42.607 19.5839C42.5301 19.559 42.3785 19.559 42.2767 19.559H39.6089V21.9982ZM41.9712 5.15869C39.4323 5.15869 37.3484 7.21558 37.3484 9.78151V14.583H43.8765C44.0281 14.583 44.2068 14.583 44.3335 14.6079C45.8066 14.6848 46.8995 15.4452 46.8995 16.7666C46.8995 17.8075 46.1619 18.6968 44.7906 18.8755V18.9253C46.2886 19.0271 47.4313 19.8644 47.4313 21.1609C47.4313 22.5571 46.1619 23.4713 44.4852 23.4713H37.3235V32.8686H44.105C46.6439 32.8686 48.7278 30.8117 48.7278 28.2458V5.15869H41.9712ZM43.2158 17.07C43.2158 16.4612 42.7836 16.054 42.2767 15.9771C42.2268 15.9771 42.098 15.9522 42.0232 15.9522H39.611V18.1878H42.0211C42.098 18.1878 42.2496 18.1878 42.2746 18.1628C42.7836 18.0859 43.2158 17.6808 43.2158 17.07Z" fill="#839FCA"/>
<path d="M16.418 5.15869C13.8791 5.15869 11.7952 7.21558 11.7952 9.78151V21.1858C13.0896 21.8216 14.4359 22.2267 15.7822 22.2267C17.382 22.2267 18.2464 21.2606 18.2464 19.9413V14.556H22.2085V19.9143C22.2085 21.9961 20.9141 23.6998 16.5198 23.6998C13.8521 23.6998 11.7703 23.116 11.7703 23.116V32.8436H18.5518C21.0907 32.8436 23.1746 30.7867 23.1746 28.2208V5.15869H16.418Z" fill="#839FCA"/>
<path d="M29.1957 5.15869C26.6568 5.15869 24.5729 7.21558 24.5729 9.78151V15.8275C25.7405 14.8365 27.7725 14.2028 31.049 14.3545C32.8025 14.4313 34.6807 14.9133 34.6807 14.9133V16.8684C33.7416 16.3864 32.6238 15.9543 31.1757 15.8525C28.6867 15.6738 27.1887 16.8934 27.1887 19.0271C27.1887 21.1858 28.6867 22.4054 31.1757 22.2018C32.6238 22.1 33.7416 21.6429 34.6807 21.1858V23.1409C34.6807 23.1409 32.8275 23.6229 31.049 23.6998C27.7725 23.8515 25.7405 23.2178 24.5729 22.2267V32.8935H31.3544C33.8933 32.8935 35.9772 30.8366 35.9772 28.2707V5.15869H29.1957Z" fill="#839FCA"/>
</svg>
